<svg width="112" height="36" viewBox="0 0 112 36" fill="none" xmlns="http://www.w3.org/2000/svg">
<path d="M14.1094 4.67188C15.1094 4.98437 15.9844 5.21875 16.7344 5.375C17.5156 5.53125 18.1875 5.64062 18.75 5.70312C19.375 5.79688 19.9531 5.82812 20.4844 5.79688C20.9531 5.76562 21.4219 5.6875 21.8906 5.5625C22.2969 5.4375 22.7344 5.26562 23.2031 5.04688C23.6719 4.82813 24.1094 4.51562 24.5156 4.10938C24.2656 5.17188 24.0625 6.04688 23.9062 6.73438C23.75 7.42188 23.6406 7.96875 23.5781 8.375C23.4844 8.84375 23.4219 9.20312 23.3906 9.45312C23.3594 9.70312 23.2969 10.0938 23.2031 10.625C23.1406 11.0625 23.0469 11.6875 22.9219 12.5C22.8281 13.2812 22.6875 14.2969 22.5 15.5469C21.7812 14.1406 21.0625 13.0156 20.3438 12.1719C19.6562 11.2969 19.0156 10.5938 18.4219 10.0625C17.7344 9.46875 17.0781 9.01562 16.4531 8.70312C16.1406 8.57812 15.8281 8.46875 15.5156 8.375C15.2656 8.3125 14.9844 8.26562 14.6719 8.23438C14.3906 8.17188 14.1719 8.17188 14.0156 8.23438L13.9688 14.8438C15.7812 15.0312 17.2812 15.2969 18.4688 15.6406C19.6562 15.9844 20.6094 16.3281 21.3281 16.6719C22.1406 17.0781 22.7812 17.5156 23.25 17.9844C24.25 19.2031 25.0156 20.2344 25.5469 21.0781C26.0781 21.9219 26.2969 22.9062 26.2031 24.0312C26.1719 24.5938 26.0156 25.2344 25.7344 25.9531C25.4531 26.6406 25.0781 27.3125 24.6094 27.9688C24.1719 28.625 23.6562 29.2031 23.0625 29.7031C22.4688 30.1719 21.8281 30.4688 21.1406 30.5938C20.5781 30.6562 19.9844 30.7031 19.3594 30.7344C18.8281 30.7656 18.2031 30.7656 17.4844 30.7344C16.7656 30.6719 16.0156 30.5625 15.2344 30.4062C15.2656 31.25 15.3125 31.8906 15.375 32.3281C15.4062 32.5781 15.4375 32.7812 15.4688 32.9375C15.5 33.0938 15.5469 33.25 15.6094 33.4062C15.6719 33.5625 15.7344 33.75 15.7969 33.9688C15.8594 34.1562 15.9375 34.375 16.0312 34.625L10.6406 34.6719C10.8281 34.4844 10.9844 34.3125 11.1094 34.1562C11.2344 33.9688 11.3281 33.8125 11.3906 33.6875C11.4844 33.5625 11.5312 33.4375 11.5312 33.3125C11.5312 33.1875 11.5469 32.9844 11.5781 32.7031C11.5781 32.4531 11.5781 32.1406 11.5781 31.7656C11.6094 31.3594 11.625 30.8281 11.625 30.1719C10.8125 29.9844 10.1094 29.8594 9.51562 29.7969C8.95312 29.7344 8.45312 29.7031 8.01562 29.7031C7.51562 29.7031 7.09375 29.75 6.75 29.8438C6.4375 29.9688 6.125 30.0938 5.8125 30.2188C5.5625 30.3438 5.28125 30.5156 4.96875 30.7344C4.6875 30.9219 4.45312 31.1406 4.26562 31.3906C4.14062 30.7969 4.04688 30.2188 3.98438 29.6562C3.95312 29.0938 3.90625 28.5781 3.84375 28.1094C3.78125 27.5781 3.73438 27.0625 3.70312 26.5625C3.70312 26.0312 3.6875 25.4531 3.65625 24.8281C3.625 24.2969 3.59375 23.6562 3.5625 22.9062C3.5625 22.1562 3.57812 21.3281 3.60938 20.4219C4.10938 21.0156 4.54688 21.5781 4.92188 22.1094C5.32812 22.6094 5.6875 23.0469 6 23.4219C6.34375 23.8906 6.65625 24.3125 6.9375 24.6875C7.28125 25.1562 7.67188 25.5625 8.10938 25.9062C8.45312 26.1875 8.875 26.4375 9.375 26.6562C9.875 26.8438 10.4062 26.8594 10.9688 26.7031L10.7344 18.6406C9.73438 18.5781 8.85938 18.4844 8.10938 18.3594C7.39062 18.2344 6.8125 18.0938 6.375 17.9375C5.8125 17.7812 5.375 17.5781 5.0625 17.3281C4.65625 17.0469 4.14062 16.6406 3.51562 16.1094C2.92188 15.5781 2.375 14.9844 1.875 14.3281C1.40625 13.6406 1.04688 12.9219 0.796875 12.1719C0.578125 11.3906 0.65625 10.6094 1.03125 9.82812C1.40625 9.07812 1.73438 8.4375 2.01562 7.90625C2.29688 7.34375 2.59375 6.875 2.90625 6.5C3.25 6.125 3.60938 5.8125 3.98438 5.5625C4.39062 5.3125 4.89062 5.07812 5.48438 4.85938C5.76562 4.76562 6.125 4.67188 6.5625 4.57812C6.9375 4.51562 7.42188 4.46875 8.01562 4.4375C8.60938 4.375 9.32812 4.34375 10.1719 4.34375C10.1094 4.09375 10.0625 3.85937 10.0312 3.64062C10 3.39062 9.96875 3.17188 9.9375 2.98438C9.90625 2.76563 9.875 2.54687 9.84375 2.32812C9.84375 2.10938 9.8125 1.875 9.75 1.625C9.6875 1.40625 9.625 1.1875 9.5625 0.96875C9.5 0.71875 9.42188 0.46875 9.32812 0.21875L15.4219 0.3125C15.1719 0.625 14.9688 0.90625 14.8125 1.15625C14.6875 1.40625 14.5781 1.625 14.4844 1.8125C14.3594 2.03125 14.2812 2.23438 14.25 2.42188C14.25 2.57813 14.2344 2.75 14.2031 2.9375C14.1719 3.125 14.1406 3.35938 14.1094 3.64062C14.1094 3.89063 14.1094 4.23437 14.1094 4.67188ZM6.84375 12.0312C6.875 12.4375 7.03125 12.8125 7.3125 13.1562C7.5625 13.5 7.9375 13.8438 8.4375 14.1875C8.96875 14.5312 9.73438 14.8281 10.7344 15.0781L10.4062 8.70312C9.5625 8.70312 8.90625 8.875 8.4375 9.21875C7.96875 9.5625 7.60938 9.95312 7.35938 10.3906C7.07812 10.8906 6.90625 11.4375 6.84375 12.0312ZM14.25 19.1094C14.2812 20.3906 14.3281 21.4062 14.3906 22.1562C14.4219 22.5625 14.4375 22.9219 14.4375 23.2344C14.4375 23.5469 14.4531 23.8906 14.4844 24.2656C14.5156 24.6094 14.5312 25.0312 14.5312 25.5312C14.5625 26 14.6094 26.5469 14.6719 27.1719C15.8281 27.0156 16.7188 26.75 17.3438 26.375C17.9688 26 18.4531 25.5938 18.7969 25.1562C19.1406 24.6562 19.375 24.125 19.5 23.5625C19.5 22.625 19.3281 21.7969 18.9844 21.0781C18.6719 20.4531 18.1562 19.9375 17.4375 19.5312C16.7188 19.0938 15.6562 18.9531 14.25 19.1094ZM34.3125 3.26562C35.875 3.35938 37.1875 3.4375 38.25 3.5C39.3438 3.53125 40.25 3.5625 40.9688 3.59375C41.7812 3.625 42.4688 3.625 43.0312 3.59375C43.5938 3.5625 44.3594 3.48437 45.3281 3.35938C46.1406 3.26562 47.2188 3.125 48.5625 2.9375C49.9375 2.71875 51.6406 2.4375 53.6719 2.09375C52.9531 2.8125 52.3906 3.46875 51.9844 4.0625C51.6094 4.625 51.3125 5.10938 51.0938 5.51562C50.8438 6.01562 50.6719 6.4375 50.5781 6.78125C50.5156 7.09375 50.5781 7.875 50.7656 9.125C50.9531 10.375 51.2188 11.8594 51.5625 13.5781C51.9062 15.2656 52.2812 17.0781 52.6875 19.0156C53.0938 20.9219 53.5 22.7188 53.9062 24.4062C54.3125 26.0625 54.6719 27.4844 54.9844 28.6719C55.3281 29.8281 55.5781 30.5156 55.7344 30.7344C56.2031 31.3906 56.5 31.8281 56.625 32.0469C56.75 32.2344 56.9688 32.4062 57.2812 32.5625C57.4062 32.625 57.6094 32.7188 57.8906 32.8438C58.1406 32.9688 58.4688 33.125 58.875 33.3125C59.3125 33.5 59.8594 33.7188 60.5156 33.9688C59.2969 34.0312 58.25 34.0781 57.375 34.1094C56.5 34.1094 55.7812 34.125 55.2188 34.1562C54.5625 34.1875 54 34.2188 53.5312 34.25C53.0625 34.25 52.5 34.2812 51.8438 34.3438C51.2812 34.4062 50.5469 34.4688 49.6406 34.5312C48.7656 34.5938 47.7344 34.6562 46.5469 34.7188C47.1719 34.2812 47.6719 33.8906 48.0469 33.5469C48.4531 33.1719 48.7656 32.8594 48.9844 32.6094C49.2344 32.2969 49.4062 32.0156 49.5 31.7656C49.5625 31.4844 49.6094 31.0625 49.6406 30.5C49.6719 30 49.6719 29.3438 49.6406 28.5312C49.6094 27.6875 49.5312 26.5938 49.4062 25.25L37.0781 26.5156C36.7656 27.0469 36.5312 27.5156 36.375 27.9219C36.2188 28.2969 36.1094 28.625 36.0469 28.9062C35.9531 29.25 35.9219 29.5312 35.9531 29.75C36.0156 30 36.125 30.2969 36.2812 30.6406C36.4375 30.9531 36.6562 31.3281 36.9375 31.7656C37.25 32.1719 37.7031 32.6562 38.2969 33.2188C37.5156 33.1875 36.7188 33.1719 35.9062 33.1719C35.0938 33.1719 34.3438 33.1875 33.6562 33.2188C32.8438 33.25 32.0469 33.2812 31.2656 33.3125C30.4844 33.3438 29.5938 33.3906 28.5938 33.4531C27.75 33.5156 26.7656 33.5938 25.6406 33.6875C24.4844 33.75 23.25 33.8438 21.9375 33.9688C22.75 33.5938 23.4375 33.2188 24 32.8438C24.5625 32.4375 25.0312 32.0625 25.4062 31.7188C25.8438 31.3438 26.2188 30.9844 26.5312 30.6406C26.75 30.3281 27.1875 29.6094 27.8438 28.4844C28.5 27.3281 29.2344 25.9688 30.0469 24.4062C30.8906 22.8438 31.7656 21.1719 32.6719 19.3906C33.6094 17.6094 34.4531 15.9375 35.2031 14.375C35.9531 12.7812 36.5625 11.4062 37.0312 10.25C37.5 9.09375 37.7344 8.34375 37.7344 8C37.6719 7.59375 37.5156 7.14062 37.2656 6.64062C37.0469 6.20312 36.7031 5.70312 36.2344 5.14062C35.7969 4.57812 35.1562 3.95312 34.3125 3.26562ZM48.8438 21.7812C48.6562 20.6875 48.4844 19.75 48.3281 18.9688C48.1719 18.1562 48.0469 17.4844 47.9531 16.9531C47.8281 16.3281 47.7344 15.7812 47.6719 15.3125C47.5781 14.875 47.4688 14.3125 47.3438 13.625C47.2188 13.0312 47.0625 12.2969 46.875 11.4219C46.7188 10.5156 46.5156 9.4375 46.2656 8.1875C44.4844 11.75 43.0938 14.5156 42.0938 16.4844C41.125 18.4219 40.4219 19.8438 39.9844 20.75C39.4531 21.8125 39.1562 22.4375 39.0938 22.625L48.8438 21.7812ZM56.6719 0.78125C58.7656 1.03125 60.5781 1.21875 62.1094 1.34375C63.6406 1.4375 64.9062 1.51562 65.9062 1.57812C67.0625 1.64063 68.0312 1.65625 68.8125 1.625C69.625 1.59375 70.7344 1.51562 72.1406 1.39062C73.3281 1.29688 74.8906 1.17188 76.8281 1.01562C78.7656 0.828125 81.1875 0.578125 84.0938 0.265625C84.125 0.984375 84.1406 1.6875 84.1406 2.375C84.1719 3.03125 84.2031 3.60938 84.2344 4.10938C84.2656 4.70312 84.2812 5.25 84.2812 5.75C84.2812 6.28125 84.25 6.95312 84.1875 7.76562C84.125 8.45312 84.0156 9.32812 83.8594 10.3906C83.7344 11.4219 83.5312 12.6562 83.25 14.0938C82.8125 12.4062 82.3906 11.0469 81.9844 10.0156C81.5781 8.95312 81.2031 8.10938 80.8594 7.48438C80.4844 6.76562 80.1094 6.21875 79.7344 5.84375C79.3281 5.5625 78.8438 5.32812 78.2812 5.14062C77.7812 4.98437 77.1406 4.85938 76.3594 4.76562C75.6094 4.67188 74.7188 4.6875 73.6875 4.8125C73.5312 8.9375 73.4219 12.2812 73.3594 14.8438C73.2969 17.4062 73.25 19.4062 73.2188 20.8438C73.1875 22.5625 73.1719 23.7969 73.1719 24.5469C73.2031 25.6094 73.375 26.6562 73.6875 27.6875C73.9375 28.5625 74.3438 29.4688 74.9062 30.4062C75.4688 31.3438 76.2812 32.1719 77.3438 32.8906H71.625C71.0938 32.8906 70.4375 32.9219 69.6562 32.9844C69 33.0469 68.1562 33.1094 67.125 33.1719C66.125 33.2344 64.9531 33.3438 63.6094 33.5C64.0781 32.6875 64.4531 31.9531 64.7344 31.2969C65.0156 30.6406 65.2344 30.0781 65.3906 29.6094C65.5781 29.0469 65.7188 28.5469 65.8125 28.1094C65.8438 27.4844 65.9219 26.2188 66.0469 24.3125C66.0781 23.5312 66.1094 22.5625 66.1406 21.4062C66.2031 20.25 66.2656 18.875 66.3281 17.2812C66.4219 15.6875 66.5 13.8594 66.5625 11.7969C66.6562 9.70312 66.75 7.34375 66.8438 4.71875C66.2812 4.5625 65.75 4.57812 65.25 4.76562C64.75 4.92188 64.3125 5.125 63.9375 5.375C63.5 5.6875 63.0781 6.0625 62.6719 6.5C62.2656 7.03125 61.8125 7.71875 61.3125 8.5625C60.875 9.28125 60.375 10.2344 59.8125 11.4219C59.25 12.5781 58.6094 14.0156 57.8906 15.7344C57.7344 13.9219 57.625 12.4375 57.5625 11.2812C57.5 10.0938 57.4531 9.17188 57.4219 8.51562C57.3906 7.73438 57.375 7.15625 57.375 6.78125C57.375 6.4375 57.3438 5.98438 57.2812 5.42188C57.2188 4.95312 57.1406 4.34375 57.0469 3.59375C56.9531 2.8125 56.8281 1.875 56.6719 0.78125ZM81.1875 1.4375C82.375 1.71875 83.4375 1.9375 84.375 2.09375C85.3438 2.21875 86.1562 2.3125 86.8125 2.375C87.5938 2.46875 88.2812 2.5 88.875 2.46875C89.625 2.4375 90.5625 2.32812 91.6875 2.14062C92.8125 1.95312 94 1.76562 95.25 1.57812C96.5 1.39062 97.7344 1.23437 98.9531 1.10938C100.172 0.984375 101.234 0.96875 102.141 1.0625C103.047 1.15625 104 1.375 105 1.71875C106 2.03125 106.938 2.46875 107.812 3.03125C108.688 3.5625 109.438 4.21875 110.062 5C110.719 5.78125 111.125 6.6875 111.281 7.71875C111.438 8.71875 111.344 9.79688 111 10.9531C110.656 12.0781 110.109 13.1875 109.359 14.2812C108.609 15.3438 107.672 16.3281 106.547 17.2344C105.422 18.1406 104.172 18.875 102.797 19.4375C101.703 19.8438 100.516 20.1562 99.2344 20.375C98.1406 20.5625 96.8594 20.6875 95.3906 20.75C93.9531 20.7812 92.4219 20.625 90.7969 20.2812C90.5781 21.1875 90.4531 22.0312 90.4219 22.8125C90.4219 23.5625 90.4531 24.2344 90.5156 24.8281C90.6094 25.5156 90.7344 26.1406 90.8906 26.7031C91.0781 27.2656 91.3125 27.9219 91.5938 28.6719C91.8438 29.2969 92.125 30.0625 92.4375 30.9688C92.7812 31.8438 93.1875 32.8281 93.6562 33.9219C93.0938 33.9219 92.5469 33.9375 92.0156 33.9688C91.4844 33.9688 91 33.9844 90.5625 34.0156C90.0625 34.0469 89.5938 34.0781 89.1562 34.1094C88.6562 34.1406 88.0938 34.2031 87.4688 34.2969C86.9375 34.3594 86.2656 34.4531 85.4531 34.5781C84.6719 34.7031 83.7812 34.8594 82.7812 35.0469C83.4375 34.1094 83.9531 33.25 84.3281 32.4688C84.7344 31.6562 85.0312 30.9531 85.2188 30.3594C85.4375 29.6719 85.5781 29.0469 85.6406 28.4844C85.6719 28.0156 85.6719 27.1875 85.6406 26C85.6406 24.8125 85.625 23.4375 85.5938 21.875C85.5625 20.3125 85.5156 18.6719 85.4531 16.9531C85.3906 15.2344 85.3125 13.625 85.2188 12.125C85.125 10.5938 85.0156 9.28125 84.8906 8.1875C84.7969 7.09375 84.7031 6.375 84.6094 6.03125C84.4844 5.625 84.2656 5.1875 83.9531 4.71875C83.7031 4.3125 83.3438 3.84375 82.875 3.3125C82.4375 2.75 81.875 2.125 81.1875 1.4375ZM90.8906 10.6719C90.8594 10.9844 90.8438 11.3125 90.8438 11.6562C90.8438 12.3125 90.8906 13.1562 90.9844 14.1875C91.2031 14.7188 91.4688 15.1562 91.7812 15.5C92.125 15.8438 92.4844 16.1094 92.8594 16.2969C93.2656 16.4844 93.6719 16.6094 94.0781 16.6719C94.4844 16.7344 94.8906 16.7656 95.2969 16.7656C96.2344 16.7344 97.2188 16.5156 98.25 16.1094C99.625 15.5156 100.594 14.6719 101.156 13.5781C101.719 12.4844 102.016 11.3594 102.047 10.2031C102.078 9.04688 101.875 7.98438 101.438 7.01562C101.031 6.04688 100.531 5.39062 99.9375 5.04688C99.4375 4.82813 98.7969 4.73438 98.0156 4.76562C97.3281 4.79687 96.4688 4.96875 95.4375 5.28125C94.4062 5.59375 93.1406 6.15625 91.6406 6.96875C91.4844 7.53125 91.3594 8.03125 91.2656 8.46875C91.1719 8.90625 91.0938 9.29688 91.0312 9.64062C90.9688 10.0156 90.9219 10.3594 90.8906 10.6719Z" fill="#081F70"/>
</svg>
